<mxfile host="app.diagrams.net" agent="Mozilla/5.0 (X11; Linux x86_64) AppleWebKit/537.36 (KHTML, like Gecko) Chrome/140.0.0.0 Safari/537.36" version="28.2.4">
  <diagram name="Page-1" id="IJm5mm4XeN8IWuT5u6mj">
    <mxGraphModel dx="559" dy="282" grid="1" gridSize="10" guides="1" tooltips="1" connect="1" arrows="1" fold="1" page="1" pageScale="1" pageWidth="850" pageHeight="1100" math="0" shadow="0">
      <root>
        <mxCell id="0" />
        <mxCell id="1" parent="0" />
        <mxCell id="GfLsMkW95VEtjMX5fsOj-1" value="Bus System&lt;div&gt;Improvements&lt;/div&gt;" style="rounded=1;whiteSpace=wrap;html=1;" vertex="1" parent="1">
          <mxGeometry x="280" y="80" width="120" height="80" as="geometry" />
        </mxCell>
        <mxCell id="GfLsMkW95VEtjMX5fsOj-2" value="" style="endArrow=classic;html=1;rounded=0;entryX=0;entryY=0.5;entryDx=0;entryDy=0;endFill=1;" edge="1" parent="1" target="GfLsMkW95VEtjMX5fsOj-1">
          <mxGeometry width="50" height="50" relative="1" as="geometry">
            <mxPoint x="200" y="120" as="sourcePoint" />
            <mxPoint x="250" y="70" as="targetPoint" />
          </mxGeometry>
        </mxCell>
        <mxCell id="GfLsMkW95VEtjMX5fsOj-3" value="" style="endArrow=classic;html=1;rounded=0;entryX=0;entryY=0.5;entryDx=0;entryDy=0;endFill=1;" edge="1" parent="1">
          <mxGeometry width="50" height="50" relative="1" as="geometry">
            <mxPoint x="400" y="119.8" as="sourcePoint" />
            <mxPoint x="480" y="119.8" as="targetPoint" />
          </mxGeometry>
        </mxCell>
        <mxCell id="GfLsMkW95VEtjMX5fsOj-4" value="Perception Layer" style="rounded=1;whiteSpace=wrap;html=1;" vertex="1" parent="1">
          <mxGeometry x="280" y="240" width="120" height="80" as="geometry" />
        </mxCell>
        <mxCell id="GfLsMkW95VEtjMX5fsOj-5" value="" style="endArrow=classic;html=1;rounded=0;entryX=0;entryY=0.5;entryDx=0;entryDy=0;endFill=1;" edge="1" parent="1">
          <mxGeometry width="50" height="50" relative="1" as="geometry">
            <mxPoint x="200" y="250" as="sourcePoint" />
            <mxPoint x="280" y="250" as="targetPoint" />
          </mxGeometry>
        </mxCell>
        <mxCell id="GfLsMkW95VEtjMX5fsOj-6" value="" style="endArrow=classic;html=1;rounded=0;entryX=0;entryY=0.5;entryDx=0;entryDy=0;endFill=1;" edge="1" parent="1">
          <mxGeometry width="50" height="50" relative="1" as="geometry">
            <mxPoint x="400" y="279.8" as="sourcePoint" />
            <mxPoint x="480" y="279.8" as="targetPoint" />
          </mxGeometry>
        </mxCell>
        <mxCell id="GfLsMkW95VEtjMX5fsOj-9" value="" style="edgeStyle=orthogonalEdgeStyle;rounded=0;orthogonalLoop=1;jettySize=auto;html=1;" edge="1" parent="1" source="GfLsMkW95VEtjMX5fsOj-7" target="GfLsMkW95VEtjMX5fsOj-8">
          <mxGeometry relative="1" as="geometry" />
        </mxCell>
        <mxCell id="GfLsMkW95VEtjMX5fsOj-7" value="Network Layer" style="rounded=1;whiteSpace=wrap;html=1;" vertex="1" parent="1">
          <mxGeometry x="480" y="240" width="120" height="80" as="geometry" />
        </mxCell>
        <mxCell id="GfLsMkW95VEtjMX5fsOj-8" value="Application Layer" style="rounded=1;whiteSpace=wrap;html=1;" vertex="1" parent="1">
          <mxGeometry x="680" y="240" width="120" height="80" as="geometry" />
        </mxCell>
        <mxCell id="GfLsMkW95VEtjMX5fsOj-10" value="" style="edgeStyle=orthogonalEdgeStyle;rounded=0;orthogonalLoop=1;jettySize=auto;html=1;" edge="1" parent="1">
          <mxGeometry relative="1" as="geometry">
            <mxPoint x="800" y="279.8" as="sourcePoint" />
            <mxPoint x="880" y="279.8" as="targetPoint" />
          </mxGeometry>
        </mxCell>
        <mxCell id="GfLsMkW95VEtjMX5fsOj-11" value="" style="endArrow=classic;html=1;rounded=0;entryX=0;entryY=0.5;entryDx=0;entryDy=0;endFill=1;" edge="1" parent="1">
          <mxGeometry width="50" height="50" relative="1" as="geometry">
            <mxPoint x="200" y="279.8" as="sourcePoint" />
            <mxPoint x="280" y="279.8" as="targetPoint" />
          </mxGeometry>
        </mxCell>
        <mxCell id="GfLsMkW95VEtjMX5fsOj-12" value="" style="endArrow=classic;html=1;rounded=0;entryX=0;entryY=0.5;entryDx=0;entryDy=0;endFill=1;" edge="1" parent="1">
          <mxGeometry width="50" height="50" relative="1" as="geometry">
            <mxPoint x="200" y="310" as="sourcePoint" />
            <mxPoint x="280" y="310" as="targetPoint" />
          </mxGeometry>
        </mxCell>
        <mxCell id="GfLsMkW95VEtjMX5fsOj-13" value="Physical Input" style="text;html=1;align=center;verticalAlign=middle;whiteSpace=wrap;rounded=0;" vertex="1" parent="1">
          <mxGeometry x="180" y="220" width="90" height="30" as="geometry" />
        </mxCell>
      </root>
    </mxGraphModel>
  </diagram>
</mxfile>
